# xmcd CD database file
#
# Track frame offsets:
#	182
#	21177
#	35535
#	50200
#	70582
#	88922
#	122647
#	140820
#	157757
#	175957
#	192842
#	206857
#	228355
#
# Disc length: 3248 seconds
#
# Revision: 2
# Processed by: cddbd v1.5.1PL2 Copyright (c) Steve Scherf et al.
# Submitted via: CDex 1.51
#
DISCID=b90cae0d
DTITLE=Various Artist - Soul And Blues On CD
DYEAR=1900
DGENRE=Blues
TTITLE0=Gladys Knight - Midnight Train To Georgia
TTITLE1=Freddie King - Dust My Broom
TTITLE2=Big Bill Broonzy - Southbound Train
TTITLE3=Norman Connors - You Are My Starship
TTITLE4=James Cotton - Chicken Heads
TTITLE5=Phyllis Hyman - Loving You Loosing You
TTITLE6=Linda Jones - Your Precious Love
TTITLE7=The Moments - Love On A 2 Way Street
TTITLE8=Melba Moore - The Long And Winding Road
TTITLE9=Gladys Knight - Best Thing That Ever Happened
TTITLE10=Jimmy Rogers - That's Allright
TTITLE11=Barbara Mason - Yes I'm Ready
TTITLE12=Sonny Terry and Brownie McGhee - Change The Lock On My Door
EXTD=
EXTT0=
EXTT1=
EXTT2=
EXTT3=
EXTT4=
EXTT5=
EXTT6=
EXTT7=
EXTT8=
EXTT9=
EXTT10=
EXTT11=
EXTT12=
PLAYORDER=
